<svg width="229" height="701" viewBox="0 0 229 701" fill="none" xmlns="http://www.w3.org/2000/svg">
<path d="M77.7367 674.845C78.7507 671.091 79.7461 668.347 83.2253 666.584C85.0104 665.679 87.3177 665.278 88.739 663.798C92.3755 660.013 93.4553 654.023 93.96 648.857C94.2408 645.983 89.0414 642.221 87.4057 640.589C85.1539 638.341 83.6769 635.322 81.6773 632.876C77.4562 627.714 66.7609 623.818 59.844 626.189C56.1748 627.447 52.9825 644.309 56.2791 645.475C63.567 648.055 75.2915 649.862 83.1611 645.128C88.7359 641.774 92.0305 636.427 92.9312 629.902C93.5743 625.243 95.6167 620.384 96.4448 615.645C97.9284 607.156 94.1757 600.026 91.076 593.197C86.081 582.192 79.2502 576.897 67.7319 577.402C61.9165 577.656 56.0376 579.454 50.238 580.358C48.4491 580.636 40.8802 580.161 39.9557 582.807C38.8995 585.829 41.5441 591.077 42.4634 593.588C44.1148 598.097 47.9955 602.507 52.45 603.583C60.7761 605.595 70.5401 603.974 79.2879 603.686C88.7052 603.376 100.222 598.924 105.606 588.633C108.473 583.153 109.089 574.222 108.942 568.411C108.843 564.486 106.048 560.856 105.118 557.18C104.214 553.606 103.802 549.597 102.129 546.415C99.7179 541.828 93.3967 542.464 89.1387 541.77C84.1417 540.956 79.243 537.299 74.8387 534.969C71.3273 533.112 72.3954 537.863 72.0595 541.301C71.5557 546.456 67.584 551.069 67.1013 556.009C66.9404 557.656 74.4797 560.156 75.8178 560.166C80.1379 560.197 82.3108 559.81 85.7323 556.158C90.67 550.887 94.5557 544.466 99.5903 539.226C102.935 535.745 105.363 532.155 105.846 527.213C106.218 523.399 106.068 521.49 104.683 518.632C103.088 515.34 106.326 508.221 105.77 504.231C105.197 500.113 102.287 496.092 100.937 492.27C99.2043 487.363 95.7536 483.767 91.125 482.538C85.8927 481.149 80.316 481.736 74.8305 481.818C69.3612 481.9 63.9804 481.368 58.4518 481.55C54.5693 481.678 55.4673 489.982 55.1445 493.286C54.6099 498.757 57.272 500.934 61.3754 503.226C68.0793 506.971 76.0992 505.952 83.4551 507.391C90.5272 508.775 101.874 509.19 109.262 506.989C123.667 502.698 129.859 487.795 128.682 473.264C128.06 465.59 124.936 461.458 120.685 456.424C116.783 451.804 112.756 445.876 108.239 442.11C104.818 439.257 100.509 437.67 96.9271 435.031C93.243 432.317 90.4828 428.996 87.3161 425.696C84.634 422.902 78.5338 418.55 74.2962 422.175C68.3616 427.252 68.1194 436.251 66.3492 443.312C65.5917 446.333 64.1262 450.956 65.4977 453.665C68.9273 460.437 84.7174 458.189 91.1346 456.231C95.1857 454.995 99.3308 451.244 102.743 448.396C109.014 443.164 116.84 434.953 121.164 427.768C122.631 425.329 126.537 422.333 127.139 419.445C128.115 414.758 128.135 409.654 128.591 404.987C129.014 400.657 130.094 396.193 126.658 393.648C121.375 389.737 113.464 388.946 107.239 387.645C104.519 387.076 101.828 386.307 99.1452 385.712C97.2282 385.287 95.9979 391.611 95.5999 392.922C93.5452 399.69 98.4785 398.378 102.868 401.256C111.23 406.74 115.656 406.718 124.205 397.051C132.643 387.51 131.657 377.663 131.484 366.375C131.31 355.029 131.437 341.542 122.441 335.249C114.696 329.831 101.389 331.602 93.3658 339.619C84.8574 348.122 87.9431 353.922 93.1055 361.939C98.3977 370.157 111.994 370.072 119.874 363.166C128.699 355.431 130.549 348.827 130.812 337.622C130.926 332.767 131.05 329.992 128.478 326.7C125.098 322.374 124.292 318.276 122.67 312.437C120.969 306.313 119.946 299.771 118.171 293.776C117.235 290.613 112.211 289.76 109.654 288.804C101.693 285.826 93.1192 283.879 84.467 289.006C81.7637 290.608 86.1814 300.776 87.1296 302.296C90.4694 307.65 94.1402 308.26 100.01 308.066C103.429 307.953 106.938 308.367 110.163 306.115C113.106 304.061 115.347 301.103 118.084 298.761C122.436 295.038 127.196 290.724 129.342 285.102C131.136 280.401 131.716 275.202 133.488 270.511C134.96 266.616 137.117 260.206 136.587 255.998C136.048 251.722 128.295 249.544 125.857 247.06C122.849 243.996 120.704 240.064 118.598 236.166C117.128 233.444 116.275 229.135 112.933 228.631C107.645 227.835 89.4242 237.449 92.3321 246.594C94.066 252.046 102.605 254.532 107.285 254.495C112.777 254.453 120.124 255.479 125.489 252.459C133.619 247.881 135.834 238.144 140.562 230.459C142.503 227.305 142.66 224.869 142.78 221.273C143.025 213.969 143.367 206.63 143.483 199.342C143.602 191.818 143.138 187.862 137.762 184.178C134.745 182.11 131.791 179.347 127.899 179.476C124.859 179.576 113.233 178.876 112.691 184.421C112.258 188.856 111.231 193.681 113.007 197.564C115.171 202.293 120.471 203.927 124.944 204.802C133.172 206.412 137.3 201.437 139.232 192.48C140.942 184.553 142.314 176.082 143.102 168.021C144.862 150.008 146.848 130.824 153.324 113.365C156.992 103.476 158.485 91.6672 159.481 81.4687C160.318 72.9096 155.564 70.8627 151.912 64.7493C149.76 61.147 149.643 56.3844 147.155 52.8304C145.483 50.443 141.738 48.7783 140.612 46.0879C138.115 40.1248 142.334 30.7965 147.026 26.3038C148.965 24.4471 153.15 27.154 154.597 27.8498C158.531 29.7418 160.193 35.2263 161.027 39.8483C162.908 50.2663 158.838 61.6422 153.446 71.1631C149.768 77.6585 141.63 79.8575 135.634 79.8309C131.208 79.8112 130.095 67.0474 126.902 63.9579C121.025 58.2706 119.902 52.9322 119.891 43.9879C119.886 40.2669 118.435 36.5987 117.713 33.1062C117.536 32.2516 117.446 29.5529 116.922 28.9124C113.298 24.4795 107.413 22.6077 102.878 19.4994" stroke="#F4F4E7" stroke-width="0.5" stroke-linecap="round" stroke-linejoin="round"/>
<path d="M103.891 243.207C100.735 218.625 97.2408 193.448 91.3432 170.899C89.763 164.858 87.1426 161.764 85.3715 156.589C84.0023 152.588 82.8639 146.968 80.6457 144.538C78.402 142.079 67.1391 130.865 64.8385 137.341C59.1624 153.321 54.404 173.867 54.4057 193.498C54.4069 207.588 57.4929 218.665 59.0048 231.912C59.6483 237.55 61.2547 244.447 62.5285 249.905C64.1684 256.932 63.6895 265.674 63.6902 273.338" stroke="#34BC8B" stroke-width="0.5" stroke-linecap="round" stroke-linejoin="round"/>
<path d="M83.5964 685.472C90.1987 678.827 96.5712 671.077 103.308 664.979C107.985 660.747 112.918 657.184 117.2 651.458C121.435 645.794 126.594 638.08 128.881 628.866C133.306 611.045 132.025 594.108 127.645 576.799C125.513 568.372 119.879 566.333 115.408 564.623C103.432 560.043 89.3456 576.048 80.1046 590.995C77.1172 595.828 76.3764 603.826 73.6483 609.219C72.2238 612.036 69.1118 612.711 68.2957 615.938" stroke="#34BC8B" stroke-width="1.5" stroke-linecap="round" stroke-linejoin="round"/>
<path d="M4.96071 637.293C23.4551 637.292 41.9664 635.796 60.4138 635.794C67.3967 635.794 71.9187 639.168 77.7653 645.512C84.1532 652.443 81.6856 674.577 81.6866 686.629" stroke="#34BC8B" stroke-width="0.5" stroke-linecap="round" stroke-linejoin="round"/>
<path d="M42.5312 214.575C45.5732 227.271 46.788 239.561 48.5673 252.966C49.7981 262.238 50.4794 272.103 53.3543 279.982C57.7421 292.008 72.1153 288.512 77.4028 281.151C80.1723 277.296 86.057 272.197 87.4286 265.761C89.3149 256.908 90.0648 246.462 92.7102 238.326C98.0521 221.897 92.4738 200.575 95.1187 182.62C97.0804 169.302 96.5759 154.566 97.9444 140.798" stroke="#34BC8B" stroke-width="0.5" stroke-linecap="round" stroke-linejoin="round"/>
<path d="M111.809 245.286C113.161 255.773 116.364 265.911 118.987 275.378C120.422 280.56 122.215 281.024 124.896 283.005C129.598 286.479 134.963 286.022 139.922 286.022C145.021 286.021 147.262 285.27 150.136 276.298C151.853 270.937 151.316 261.999 151.316 255.845C151.315 246.79 149.957 238.542 149.794 229.86C149.651 222.195 145.995 219.031 145.994 212.09C145.994 205.502 142.769 194.754 141.054 189.459C138.994 183.096 137.496 176.224 135.354 169.845" stroke="#34BC8B" stroke-linecap="round" stroke-linejoin="round"/>
<path d="M28.8372 612.326C25.2202 612.093 20.9409 612.433 17.7574 609.093C13.2824 604.397 12.6504 587.188 10.372 577.123C6.6109 560.508 15.146 527.36 21.7082 520.03C26.6912 514.464 32.0031 521.659 36.5817 514.815C39.8126 509.987 44.5175 496.994 45.4191 487.544C49.0672 449.307 32.4392 450.713 31.841 419.271C31.3806 395.069 34.8299 370.081 45.6476 370.778C48.029 370.932 50.4104 371.085 52.7918 371.239C57.0037 371.51 58.4683 364.232 60.5322 351.833C64.6581 327.049 64.9674 304.504 56.569 297.156C50.577 291.913 43.3583 291.25 43.1134 270.715C42.8793 251.076 44.1204 230.762 52.0927 221.533C58.3863 214.247 65.6269 211.724 71.1777 196.686C75.2417 185.676 80.6795 153.552 75.6596 146.08C73.6655 143.112 71.8738 135.309 71.0272 129.279C69.7951 120.503 66.4734 113.799 65.7702 104.5C65.0957 95.5807 68.2105 77.1072 69.134 67.4279C69.875 59.6616 75.6937 58.3263 77.8483 57.7854C82.1223 56.7123 86.6873 63.1737 88.2313 46.9906" stroke="#95D09B" stroke-width="2" stroke-linecap="round" stroke-linejoin="round"/>
<path d="M8.90283 440.375C16.2014 440.105 24.8103 435.885 30.076 425.972C33.2068 420.078 31.5701 398.752 30.3401 391.81C28.7407 382.783 21.6662 379.421 18.1055 374.06C15.9862 370.869 16.8401 361.768 16.903 357.482C17.064 346.514 23.394 334.878 27.2653 327.589C29.6464 323.107 43.9357 318.29 44.1235 312.266C44.2921 306.854 42.8022 303.623 41.3644 299.371C39.5595 294.034 39.5641 287.109 36.9145 282.123C32.7619 274.309 26.5033 274.655 22.0557 267.807C11.6783 251.828 17.4057 233.704 28.0572 222.676C31.7384 218.864 35.4444 219.163 39.3112 216.563C43.2867 213.89 38.3478 205.963 36.7299 202.58C33.9883 196.847 36.0091 187.558 30.6785 183.323C27.0802 180.463 24.3338 179.698 21.2917 175.118C18.6809 171.187 19.976 157.298 21.8681 152.846C25.41 144.51 29.7082 139.302 33.877 131.745C37.4536 125.261 42.2882 122.092 46.1088 116.338C47.7414 113.879 43.5048 102.551 43.127 99.4244C42.5744 94.8513 41.9871 86.3254 39.7004 83.9346C37.757 81.9027 36.2783 77.9822 34.0949 77.0692C32.9083 76.573 28.1303 71.0356 27.2882 69.6177C24.3214 64.6221 21.7767 53.1289 18.4787 50.0255" stroke="#34BC8B" stroke-linecap="round" stroke-linejoin="round"/>
<path d="M173.275 678.789C167.82 677.918 160.665 677.054 157.8 667.776C155.991 661.915 153.297 655.485 152.236 649.721C150.573 640.686 150.074 635.026 153.227 628.38C154.955 624.737 155.533 625.075 158.895 624.333C162.578 623.52 167.954 624.459 172.083 625.119C173.81 625.394 176.267 623.487 177.927 626.423C181.018 631.893 185.248 641.736 184.385 647.138C182.662 657.921 172.111 658.11 163.442 655.637C159.639 654.552 156.249 648.824 153.614 645.03C148.168 637.187 145.698 627.697 140.96 619.57C135.96 610.996 129.299 602.039 126.604 592.312C124.732 585.554 125.822 577.948 127.147 572.591C129.014 565.039 139.851 555.48 148.294 565.033C151.984 569.209 152.511 573.303 153.703 578.359C154.549 581.943 157.113 584.879 157.741 588.289C159.799 599.473 143.237 593.29 137.732 589.179C132.361 585.167 128.923 576.531 125.593 570.239C123.397 566.09 123.558 563.701 124.276 560.207C127.372 545.146 137.568 535.672 151.134 537.839C156.413 538.682 165.573 537.672 168.74 547.748C170.673 553.899 172.467 560.452 171.048 565.531C170.282 568.269 162.923 565.451 160.817 565.424C156.907 565.374 152.465 565.863 148.173 563.363C144.546 561.251 141.402 555.169 139.357 550.814C136.306 544.314 133.864 538.59 131.671 531.883C130.196 527.374 126.937 523.885 125.93 518.958C125.072 514.757 124.386 510.564 123.615 506.374C122.071 497.984 122.282 490.338 126.31 486.007C129.364 482.722 134.106 481.64 138.813 482.391C144.414 483.286 146.178 488.921 147.346 495.267C147.63 496.808 149.163 501.785 147.947 502.254C144.082 503.748 137.104 501.921 132.507 499.211C121.387 492.657 110.892 482.913 107.976 467.068C106.017 456.422 105.399 448.175 106.825 438.823C107.731 432.884 109.867 425.552 113.131 422.004C116.841 417.97 122.956 417.175 127.901 415.656C130.804 414.764 135.145 419.799 137.205 423.414C140.528 429.247 144.89 436.249 146.077 442.699C146.683 445.991 147.096 448.38 144.293 448.397C140.383 448.421 135.579 448.898 131.28 446.195C123.329 441.198 118.444 431.367 115.974 421.55C114.353 415.113 112.939 408.781 111.763 402.391C111.265 399.684 110.208 396.069 111.001 393.851C111.937 391.228 113.878 389.407 115.109 387.079C116.405 384.625 117.78 381.228 119.662 379.512C121.353 377.97 128.512 383.848 131.115 385.756C137.928 390.75 142.242 397.516 147.99 404.38C149.543 406.233 153.33 408.686 154.218 410.986C155.962 415.501 155.578 418.254 153.437 420.105C148.616 424.274 138.209 421.186 133.079 411.655C128.036 402.283 125.953 395.142 124.968 385.847C124.509 381.517 124.653 378.045 123.807 373.447C123.36 371.017 123.632 367.907 124.443 366.08C125.584 363.513 132.616 362.557 135.33 362.991C137.332 363.31 137.692 369.733 138.034 371.593C138.869 376.127 136.78 376.592 133.856 376.125C129.002 375.35 126.633 372.597 122.173 367.616C118.329 363.322 116.688 361.374 115.544 355.952C113.703 347.228 110.352 338.538 107.804 329.791C105.898 323.252 103.71 316.004 102.515 309.511C101.754 305.375 101.548 300.366 104.115 298.583C108.037 295.859 108.843 296.306 114.268 299.627C120.297 303.317 122.278 310.998 121.678 317.729C121.264 322.362 121.139 325.743 115.826 323.315C112.64 321.859 108.068 315.573 105.341 312.521C101.911 308.68 98.3604 304.04 95.7182 299.306C90.618 290.166 89.6557 278.359 91.4641 270.607C92.4161 266.526 94.1578 263.135 95.3929 259.309C96.2926 256.521 96.4654 252.826 98.743 251.632C102.512 249.656 107.952 246.013 113.165 251.005C115.349 253.096 116.804 256.765 118.228 259.572C120.404 263.859 115.965 263.117 114.238 263.432C101.373 265.785 95.7591 245.092 90.3542 231.929C88.141 226.539 90.1247 221.442 90.4976 216.808C90.874 212.13 90.1716 201.683 94.6789 201.299C98.4161 200.981 103.083 202.6 107.051 203.234C110.959 203.858 112.836 206.31 115.714 210.725C118.024 214.268 118.435 216.377 119.175 220.397C120.079 225.31 110.814 222.404 108.872 222.094C101.729 220.953 96.3852 215.727 92.0132 206.774C88.3579 199.289 84.639 191.062 83.2011 183.249C82.0027 176.737 80.7406 172.433 78.3396 165.966C75.9539 159.541 74.2912 154.134 75.8843 148.903C78.4505 140.477 82.4556 139.14 89.1633 137.158C95.5722 135.266 101.538 131.744 108.805 132.249C113.352 132.564 117.856 134.721 122.277 139.146C128.195 145.068 128.054 152.338 130.301 159.739C133.135 169.071 136.414 177.882 135.303 186.411C133.664 198.987 124.55 196.372 115.323 194.899C106.879 193.55 97.5634 190.206 91.28 178.432C85.7442 168.059 84.4138 155.008 83.2544 144.633C81.899 132.503 81.4052 125.978 87.6975 119.552C90.7294 116.455 97.5581 118.237 101.868 117.894C105.136 117.635 108.457 117.815 111.748 117.45C115.482 117.036 116.614 116.836 119.209 114.185C121.416 111.931 115.983 100.567 114.144 97.6541C109.997 91.0872 102.514 88.3217 97.2357 85.958C92.0224 83.6235 86.2689 80.1069 81.1329 78.8059C76.4639 77.6232 71.3386 82.635 71.4412 88.7299C71.5252 93.7147 76.4482 96.5939 79.6559 97.676C82.5101 98.6387 89.4718 100.769 91.6697 99.0168C94.3151 96.9073 93.0736 91.7946 93.1196 87.6115C93.2096 79.4201 93.7211 72.9492 92.1065 64.176C90.7604 56.8616 86.1314 50.1924 81.2529 44.7811C77.2735 40.3671 73.1373 36.2757 69.1166 31.9488C67.0224 29.6951 64.4348 26.4763 61.9901 25.3636C58.121 23.6027 54.0919 23.6552 52.5758 27.4915C50.7468 32.12 50.135 34.0193 51.2801 40.242C52.4838 46.7827 54.0333 50.8699 58.9451 55.1662C63.6667 59.2961 70.1254 61.2595 74.3775 59.8592C78.2682 58.5779 76.314 49.0879 75.4799 43.8591C74.7285 39.1489 76.0816 34.9496 75.2228 30.283" stroke="#95D09B" stroke-linecap="round" stroke-linejoin="round"/>
<path d="M84.0878 115.531C84.0859 93.1121 87.4262 70.727 91.461 49.82C92.0466 46.7858 92.6657 42.5177 93.8898 40.1463C96.6275 34.8422 101.232 31.2577 104.957 29.7747C107.766 28.6563 111.614 27.3852 114.45 28.9897C117.238 30.5669 119.483 34.7901 121.56 38.4885C126.198 46.7474 130.804 57.7006 133.868 68.3798C135.528 74.1681 137.305 79.6973 137.514 86.5502C137.863 98.0302 130.553 110.517 126.2 116.138C121.807 121.813 117.324 128.078 111.826 128.079C110.281 128.079 107.769 128.42 107.17 124.942" stroke="#34BC8B" stroke-width="0.5" stroke-linecap="round" stroke-linejoin="round"/>
<path d="M52.4653 656.231C49.4847 661.684 46.4157 666.776 43.5386 672.453C39.7589 679.913 35.6481 687.558 30.4932 691.357C23.7998 696.29 14.6405 697.765 7.55168 694.964C3.32677 693.294 2.26842 684.738 1.5213 677.775C0.470972 667.987 1.07875 656.483 2.85318 647.091C4.15956 640.176 5.74316 634.827 8.76544 630.122C11.269 626.224 14.0192 623.108 16.4501 619.043C18.6331 615.393 20.6531 611.855 23.3755 609.723C26.1166 607.577 29.3435 607.388 32.1652 605.59" stroke="#34BC8B" stroke-width="1.5" stroke-linecap="round" stroke-linejoin="round"/>
<path d="M109.856 569.273C114.912 563.01 119.499 555.371 124.738 549.612C127.609 546.455 129.123 543.721 130.347 537.886C132.825 526.067 134.495 513.594 133.09 500.858C132.504 495.537 131.316 491.081 129.803 486.576C127.892 480.886 126.164 474.996 124.214 469.34C121.632 461.849 118.254 462.155 114.073 462.156" stroke="#34BC8B" stroke-linecap="round" stroke-linejoin="round"/>
<path d="M103.924 633.225C95.4913 633.521 84.2334 638.676 77.0637 627.221C74.3498 622.885 73.6037 614.889 72.9679 608.539C72.4559 603.426 72.3371 598.321 72.3367 593.126C72.3364 589.171 71.9249 584.214 72.9205 580.583C75.5685 570.925 80.4539 560.385 86.1912 557.881C89.1144 556.606 91.9279 552.934 95.0091 552.934" stroke="#34BC8B" stroke-linecap="round" stroke-linejoin="round"/>
<path d="M156.555 434.771C153.417 434.771 150.279 434.771 147.141 434.771C145.209 434.772 142.913 435.473 141.114 433.799C136.484 429.491 132.874 421.713 129.147 414.878C123.907 405.27 118.895 391.099 118.233 376.504C117.822 367.434 116.877 354.097 119.815 346.441C125.541 331.517 132.482 319.807 141.896 316.022C146.527 314.16 150.998 309.659 155.049 304.88C155.915 303.857 160.776 298.993 161.295 301.078" stroke="#34BC8B" stroke-linecap="round" stroke-linejoin="round"/>
<path d="M24.7373 436.742C29.6486 432.765 34.5306 430.546 39.7121 428.152C43.6496 426.332 47.4228 420.362 50.2073 414.876C52.2042 410.943 52.4235 406.232 52.4231 400.994C52.4225 393.912 52.9111 392.38 49.1647 390.67C46.3982 389.407 43.4682 389.889 40.6363 389.89C38.9813 389.89 36.7211 389.066 35.1393 389.933C34.1826 390.458 32.864 392.548 31.8821 393.404C30.8557 394.299 30.4274 394.575 29.2128 394.575" stroke="#34BC8B" stroke-linecap="round" stroke-linejoin="round"/>
<path d="M44.1896 369.564C45.8976 365.268 47.5213 361.692 49.7382 358.346C51.3826 355.865 52.802 354.204 54.1373 350.965C57.0046 344.011 58.0671 329.97 51.6593 329.782C49.1945 329.709 46.6227 329.437 44.1642 329.824C41.9185 330.177 40.272 332.608 38.3055 334.12C37.5549 334.696 37.2377 336.248 36.3822 336.497C35.1441 336.856 33.9025 337.289 32.6457 337.289" stroke="#34BC8B" stroke-linecap="round" stroke-linejoin="round"/>
<path d="M70.7263 699.997C68.5304 692.568 67.45 683.699 65.8268 675.625C63.961 666.344 62.5633 657.274 61.3189 647.354C59.9213 636.213 59.7498 624.29 59.7488 612.691C59.7483 606.567 60.749 600.495 60.7485 594.71C60.7479 587.462 57.8291 580.254 56.8289 573.696C55.515 565.082 55.1252 555.46 54.4541 546.453C52.8726 525.228 46.4505 509.195 45.3291 487.256C44.7473 475.876 45.5545 464.186 45.0432 452.756C44.3599 437.482 43.6492 423.55 42.0793 408.669C40.5406 394.084 38.9641 377.632 38.9629 362.471C38.9621 353.747 40.1049 347.707 41.8341 340.156C42.6064 336.784 43.1612 331.761 44.1404 328.782C45.8914 323.456 49.7398 320.769 52.0624 317.408C55.3889 312.595 59.997 309.693 63.8809 311.125C69.5594 313.217 74.1956 330.05 76.7255 341.237C79.2478 352.39 80.4931 365.573 80.4942 378.283C80.4953 392.058 81.3924 408.023 79.8012 421.394C78.8355 429.51 75.5583 432.752 74.2307 440.189C71.6458 454.667 64.5171 462.168 58.9312 466.512C56.6759 468.266 53.8661 466.889 51.509 467.758C49.1018 468.645 46.4198 468.113 43.9779 467.975C39.1727 467.704 39.3627 458.626 39.3619 449.344C39.3616 445.925 38.8715 439.466 39.4479 436.237C40.0677 432.766 41.2942 432.154 42.7124 431.146C46.8467 428.206 50.9324 431.245 52.5952 442.411C53.7132 449.917 54.6426 458.19 54.6433 466.404C54.6435 469.883 52.9061 473.778 52.2934 476.748C51.6411 479.91 51.4056 483.166 50.2481 485.523C48.7037 488.667 46.8066 490.735 45.0248 492.889C41.9115 496.652 37.2312 499.572 33.9025 496.085C28.9846 490.933 28.3907 475.486 28.8065 464.077C29.1317 455.155 32.3759 443.721 34.5723 437.213C37.6296 428.154 40.0675 416.29 44.0601 409.482C47.8546 403.011 54.0001 402.171 58.5339 400.761C60.9046 400.023 63.1877 400.066 65.6079 399.731C70.1346 399.105 75.0744 382.632 76.7935 373.788C81.0489 351.895 82.8518 331.864 81.8595 307.224C81.5856 300.423 80.5312 293.022 80.4865 286.426C80.4208 276.74 80.8767 267.237 80.8758 257.613C80.8747 244.095 81.2654 230.581 81.2642 216.992C81.2633 205.342 80.5544 193.151 77.8659 183.413C72.6172 164.402 67.4289 147.373 60.0569 133.045C54.5313 122.305 45.403 109.816 44.1205 90.6926C43.2822 78.1925 43.4012 65.1629 46.207 54.1882C46.9562 51.2575 47.9871 48.6147 48.7312 45.6306C49.3948 42.9693 51.2617 32.5572 50.6017 29.274C49.361 23.1026 46.9965 18.3954 45.594 12.4846C44.8893 9.51414 43.7336 2.58862 42.4587 1.00278" stroke="#FF9900" stroke-linecap="round" stroke-linejoin="round"/>
</svg>
