<svg width="1247" height="574" viewBox="0 0 1247 574" fill="none" xmlns="http://www.w3.org/2000/svg">
<path d="M1159.99 447.101C1153.95 444.35 1149.61 441.948 1147.64 436.036C1146.63 433.003 1146.62 429.325 1144.53 426.669C1139.19 419.874 1129.39 416.312 1120.82 413.897C1116.05 412.554 1108.2 419.36 1104.97 421.359C1100.53 424.111 1095 425.425 1090.3 427.726C1080.36 432.583 1070.7 447.803 1072.7 459.197C1073.76 465.241 1101.3 475.501 1104.22 470.799C1110.68 460.405 1117.12 442.939 1111.41 429.329C1107.36 419.688 1099.28 412.923 1088.53 409.468C1080.85 407.001 1073.24 402.317 1065.49 399.54C1051.59 394.564 1038.47 398.077 1026.04 400.68C1006.03 404.874 995.114 413.704 992.636 431.586C991.384 440.614 992.719 450.23 992.567 459.439C992.52 462.28 989.529 473.774 993.727 476.036C998.523 478.62 1008.15 476.216 1012.65 475.597C1020.74 474.487 1029.3 469.915 1032.41 463.403C1038.21 451.231 1038.3 435.694 1040.34 422.144C1042.54 407.556 1038.36 388.424 1022.54 376.876C1014.12 370.728 999.228 366.946 989.378 365.329C982.724 364.237 975.79 367.385 969.316 367.651C963.022 367.908 956.137 367.271 950.282 368.835C941.844 371.09 941.089 381.017 938.687 387.348C935.868 394.778 928.278 401.155 923.073 407.193C918.924 412.006 927.25 411.869 932.956 413.477C941.512 415.887 948.149 423.461 956.347 425.771C959.081 426.541 965.481 415.734 965.884 413.678C967.185 407.041 967.161 403.576 961.986 397.153C954.517 387.884 944.803 379.869 937.415 370.461C932.506 364.211 927.149 359.337 918.948 357.026C912.619 355.243 909.353 354.869 904.13 356.093C898.111 357.502 887.032 350.263 880.138 349.852C873.021 349.429 865.393 352.63 858.552 353.494C849.768 354.604 842.701 358.773 839.289 365.504C835.432 373.114 834.811 381.88 833.362 390.346C831.919 398.787 829.465 406.897 828.174 415.461C827.268 421.475 841.543 422.727 847.026 424.272C856.105 426.83 860.549 423.424 865.604 417.838C873.864 408.712 874.462 396.049 879.019 385.188C883.4 374.746 887.381 357.42 885.802 345.355C882.724 321.831 859.361 307.576 834.496 304.779C821.363 303.301 813.486 306.797 803.761 311.742C794.835 316.28 783.666 320.594 776.003 326.35C770.199 330.709 766.275 336.834 760.784 341.509C755.138 346.316 748.735 349.509 742.25 353.335C736.758 356.575 727.649 364.58 732.542 372.25C739.396 382.991 754.513 386.218 765.919 391.181C770.8 393.305 778.179 397.026 783.147 395.775C795.569 392.647 796.34 367.64 794.891 357.145C793.976 350.52 788.844 342.953 785.024 336.799C778.006 325.493 766.411 310.847 755.533 301.915C751.842 298.884 747.914 291.925 743.214 290.083C735.586 287.094 726.976 285.443 719.232 283.262C712.045 281.237 704.823 278.16 699.535 282.639C691.405 289.527 687.784 301.447 683.787 310.613C682.042 314.617 679.965 318.513 678.185 322.452C676.913 325.267 687.231 329.166 689.328 330.194C700.157 335.502 699.37 327.496 705.497 321.655C717.17 310.53 718.413 303.713 704.569 287.493C690.906 271.485 674 269.878 654.898 266.564C635.698 263.233 612.972 258.758 599.75 270.604C588.365 280.802 587.506 301.837 598.719 316.724C610.61 332.512 621.291 329.604 636.315 324.204C651.716 318.669 655.504 297.723 646.126 283.409C635.622 267.377 625.01 262.436 606.174 258.477C598.014 256.762 593.365 255.691 587.066 258.604C578.787 262.433 571.637 262.373 561.313 263.016C550.486 263.691 539.148 263.189 528.516 264.018C522.907 264.456 520.015 271.916 517.662 275.545C510.334 286.85 504.569 299.423 510.72 314.362C512.642 319.029 531.081 315.457 533.921 314.48C543.924 311.04 546.014 305.586 547.384 296.494C548.183 291.198 549.896 285.93 547.028 280.253C544.411 275.074 540.066 270.687 536.906 265.734C531.88 257.856 525.976 249.165 517.107 244.081C509.691 239.829 501.084 237.288 493.678 233.073C487.53 229.574 477.335 224.221 470.08 223.702C462.707 223.175 456.789 234.412 451.891 237.376C445.85 241.032 438.594 243.084 431.406 245.088C426.387 246.486 418.867 246.432 417.051 251.415C414.177 259.298 425.135 290.381 441.411 288.808C451.116 287.87 457.779 275.52 459.071 268.309C460.587 259.845 464.444 248.866 460.897 239.654C455.521 225.694 439.729 219.197 428.124 209.484C423.362 205.499 419.296 204.485 413.261 203.158C401.004 200.464 388.716 197.611 376.45 195.122C363.785 192.551 356.974 192.011 349.202 199.113C344.839 203.1 339.322 206.767 338.413 212.797C337.703 217.506 333.161 235.171 342.363 237.764C349.722 239.837 357.57 242.947 364.637 241.446C373.243 239.617 377.534 231.98 380.304 225.376C385.401 213.228 378.197 205.299 363.638 199.485C350.754 194.34 336.853 189.541 323.475 185.772C293.583 177.351 261.778 168.211 234.183 152.709C218.553 143.929 199.054 137.886 182.129 133.118C167.925 129.117 163.095 135.782 151.721 139.461C145.019 141.629 136.947 140.298 130.229 142.999C125.716 144.814 121.824 150.049 116.957 150.928C106.171 152.878 91.6462 143.428 85.4202 134.784C82.8471 131.211 88.6258 125.631 90.2187 123.625C94.5495 118.173 104.287 117.356 112.329 117.538C130.456 117.949 148.48 127.82 162.99 139.135C172.889 146.854 174.248 160.073 172.469 169.289C171.156 176.092 149.292 173.757 143.154 177.689C131.856 184.928 122.521 184.961 107.421 182.143C101.14 180.97 94.529 182.038 88.4255 182.042C86.932 182.042 82.351 181.325 81.1187 181.928C72.5887 186.098 67.728 194.558 61.1703 200.551" stroke="#F4F4E7" stroke-width="0.5" stroke-linecap="round" stroke-linejoin="round"/>
<path d="M438.978 269.933C396.577 266.992 353.073 264.382 313.309 266.304C302.655 266.819 296.675 269.869 287.429 270.952C280.28 271.79 270.467 271.759 265.723 274.401C260.924 277.073 238.741 290.845 249.006 296.439C274.335 310.24 307.636 324.078 340.771 330.303C364.552 334.77 384.14 333.536 406.935 335.411C416.637 336.209 428.742 335.926 438.323 335.697C450.658 335.403 465.275 338.913 478.209 341.342" stroke="#34BC8B" stroke-width="0.5" stroke-linecap="round" stroke-linejoin="round"/>
<path d="M1179.62 441.456C1170.32 429.19 1159.08 416.927 1150.74 404.628C1144.94 396.091 1140.36 387.37 1131.93 378.966C1123.6 370.653 1112.07 360.269 1097.18 353.827C1068.38 341.367 1039.42 337.966 1008.94 339.215C994.102 339.822 989.032 347.844 984.853 354.18C973.659 371.152 996.599 397.902 1019.16 416.861C1026.45 422.991 1039.73 426.667 1048.05 432.575C1052.39 435.66 1052.63 440.662 1057.84 442.942" stroke="#34BC8B" stroke-width="1.5" stroke-linecap="round" stroke-linejoin="round"/>
<path d="M1075.57 547.16C1080.92 518.705 1083.74 489.749 1089.08 461.366C1091.09 450.622 1098.1 444.735 1110.49 437.752C1124.04 430.122 1160.68 440.94 1181.02 444.761" stroke="#34BC8B" stroke-width="0.5" stroke-linecap="round" stroke-linejoin="round"/>
<path d="M372.91 355.258C395.219 354.605 416.312 356.634 439.452 358.148C455.458 359.196 472.304 361.277 486.434 359.353C507.999 356.416 506.255 333.193 495.361 322.723C489.655 317.239 482.75 306.568 472.283 302.416C457.888 296.706 440.473 292.239 427.505 285.588C401.322 272.158 363.722 273.977 334.181 264.213C312.271 256.97 287.253 253.072 264.412 246.6" stroke="#34BC8B" stroke-width="0.5" stroke-linecap="round" stroke-linejoin="round"/>
<path d="M444.776 258.411C462.866 259.658 480.903 257.945 497.64 256.912C506.803 256.347 508.104 253.736 512.223 250.239C519.445 244.107 520.225 235.708 521.659 228.077C523.132 220.233 522.512 216.547 508.199 209.279C499.648 204.936 484.407 202.927 474.021 200.976C458.738 198.105 444.424 197.578 429.724 195.075C416.745 192.865 410.347 197.486 398.633 195.285C387.513 193.196 368.441 194.749 359.007 195.708C347.672 196.859 335.64 196.983 324.255 198.255" stroke="#34BC8B" stroke-linecap="round" stroke-linejoin="round"/>
<path d="M1040.33 502.506C1038.9 507.997 1038.23 514.689 1031.67 518.527C1022.45 523.923 993.226 519.436 975.578 519.749C946.448 520.266 892.969 496.62 882.495 484.199C874.541 474.766 888.221 468.876 877.995 459.661C870.779 453.158 850.211 441.798 834.522 437.414C771.04 419.672 768.605 445.702 715.365 436.649C674.382 429.681 633.206 416.448 637.51 400.025C638.458 396.41 639.405 392.795 640.353 389.179C642.029 382.785 630.168 378.223 609.838 371.115C569.201 356.906 531.239 349.279 516.408 359.869C505.826 367.425 502.621 378.322 467.891 372.185C434.677 366.316 400.75 357.963 387.478 342.77C377.001 330.776 374.836 318.835 351.059 305.525C333.651 295.78 281.004 277.224 266.942 282.578C261.357 284.704 247.667 284.986 237.245 284.375C222.078 283.488 209.803 286.472 193.904 284.604C178.655 282.813 148.376 272.161 132.306 267.67C119.412 264.066 118.841 254.69 118.551 251.204C117.976 244.288 130.201 239.313 103.334 231.805" stroke="#95D09B" stroke-width="2" stroke-linecap="round" stroke-linejoin="round"/>
<path d="M744.293 478.619C745.948 467.304 741.315 452.72 726.106 441.474C717.063 434.787 680.597 430.541 668.524 430.232C652.826 429.829 645.105 439.647 635.028 443.425C629.03 445.674 613.916 441.473 606.699 440.017C588.235 436.291 570.425 422.86 559.243 414.592C552.366 409.507 548.367 385.994 538.254 383.794C529.17 381.818 523.285 383.086 515.694 383.949C506.164 385.034 494.477 382.83 485.296 385.325C470.905 389.235 469.68 398.974 456.835 403.645C426.866 414.543 397.933 399.983 382.399 380.096C377.03 373.224 378.605 367.616 375.335 360.842C371.974 353.878 357.166 358.962 350.989 360.379C340.521 362.778 325.427 356.723 316.736 363.581C310.87 368.21 308.784 372.193 300.174 375.421C292.785 378.191 269.718 371.793 262.75 367.469C249.706 359.376 242.159 351.111 230.608 342.3C220.699 334.74 216.748 326.297 208.141 318.593C204.463 315.301 184.118 318.227 178.733 317.816C170.854 317.216 156.294 315.415 151.598 318.175C147.607 320.521 140.562 321.552 138.39 324.622C137.209 326.29 126.482 331.885 123.845 332.731C114.556 335.711 94.4216 335.981 88.2302 340.07" stroke="#34BC8B" stroke-linecap="round" stroke-linejoin="round"/>
<path d="M1194.27 301.36C1191.23 309.476 1187.7 320.211 1171.21 321.676C1160.8 322.601 1149.17 324.706 1139.13 324.509C1123.4 324.202 1113.7 323.175 1103.4 316.215C1097.75 312.402 1098.49 311.62 1098.21 306.211C1097.9 300.287 1101.04 292.313 1103.34 286.17C1104.31 283.6 1101.8 279.215 1107.24 277.593C1117.36 274.571 1135.2 271.186 1144.07 274.227C1161.77 280.299 1159.04 296.591 1152.35 309.145C1149.42 314.651 1138.78 318.051 1131.61 320.901C1116.8 326.793 1100.07 327.582 1084.98 332.296C1069.06 337.269 1052.02 344.675 1034.82 345.736C1022.88 346.473 1010.35 342.384 1001.7 338.647C989.489 333.378 976.489 313.673 995.054 303.713C1003.17 299.36 1010.23 299.848 1019.11 299.617C1025.4 299.453 1031.1 296.438 1037.04 296.554C1056.51 296.935 1041.28 320.455 1032.75 327.621C1024.43 334.613 1008.86 337.162 997.276 340.291C989.639 342.354 985.653 341.348 979.964 339.135C955.44 329.595 942.398 310.902 949.977 290.718C952.926 282.862 953.871 268.449 971.793 266.772C982.733 265.749 994.312 265.067 1002.47 268.863C1006.87 270.909 999.989 281.338 999.335 284.568C998.12 290.568 997.661 297.558 992.201 303.369C987.587 308.279 976.413 311.187 968.471 312.952C956.617 315.585 946.251 317.526 934.297 318.773C926.261 319.612 919.429 323.52 910.823 323.506C903.483 323.494 896.207 323.22 888.913 323.077C874.306 322.792 861.462 320.041 855.317 312.47C850.657 306.729 850.2 299.09 852.83 292.087C855.959 283.752 865.979 282.826 877.029 283.042C879.712 283.094 888.554 282.314 888.996 284.334C890.399 290.754 885.297 300.91 879.394 307.124C865.117 322.153 845.637 335.21 818.05 334.671C799.516 334.308 785.418 332.643 770.047 327.483C760.284 324.205 748.527 318.593 743.482 312.446C737.747 305.458 738.172 295.798 737.038 287.707C736.372 282.958 746.125 277.876 752.822 275.854C763.628 272.591 776.707 268.101 787.936 268.32C793.669 268.433 797.82 268.554 797.039 272.873C795.949 278.897 795.364 286.438 789.56 292.196C778.826 302.843 760.821 307.24 743.538 307.928C732.205 308.379 721.109 308.547 709.983 308.33C705.27 308.237 698.864 308.716 695.349 306.793C691.193 304.521 688.681 300.956 685.107 298.325C681.341 295.552 676.005 292.359 673.652 288.919C671.538 285.829 683.529 276.679 687.503 273.279C697.902 264.381 710.569 259.889 723.815 253.222C727.392 251.422 732.628 246.373 736.767 245.736C744.891 244.485 749.426 245.948 751.931 249.83C757.573 258.569 749.353 273.603 731.782 278.471C714.506 283.258 701.851 284.198 685.88 282.765C678.438 282.097 672.62 280.775 664.615 280.619C660.384 280.536 655.213 279.131 652.364 277.302C648.361 274.733 648.782 263.611 650.298 259.572C651.417 256.593 662.36 258.077 665.599 258.14C673.493 258.295 673.674 261.655 672.041 266.006C669.328 273.23 663.997 276.001 654.3 281.282C645.941 285.834 642.178 287.741 632.697 287.782C617.44 287.847 601.805 290.246 586.305 291.393C574.716 292.251 561.852 293.319 550.546 293.098C543.346 292.957 534.833 291.685 532.565 287.17C529.101 280.271 530.09 279.172 537.263 271.879C545.234 263.774 558.772 263.162 569.958 266.221C577.658 268.326 583.328 269.592 577.693 276.996C574.315 281.436 562.384 286.476 556.443 289.704C548.97 293.764 540.112 297.754 531.357 300.318C514.457 305.266 494.249 303.001 481.689 297.76C475.077 295.001 469.857 291.246 463.756 288.132C459.312 285.863 453.125 284.425 451.768 280.542C449.522 274.116 444.947 264.591 454.88 258.154C459.041 255.458 465.653 254.383 470.803 253.081C478.667 251.093 476.131 257.688 476.165 260.445C476.416 280.985 439.867 283.059 416.088 287.199C406.35 288.895 398.321 284.226 390.607 282.182C382.82 280.119 364.985 277.886 365.641 270.83C366.185 264.979 370.266 258.313 372.484 252.408C374.667 246.594 379.348 244.484 387.631 241.456C394.281 239.025 397.958 239.062 404.957 239.199C413.511 239.366 405.928 252.699 404.842 255.589C400.852 266.217 390.486 272.781 374.111 276.668C360.421 279.918 345.46 283.03 331.857 282.764C320.52 282.542 312.89 283.119 301.282 284.762C289.748 286.394 280.14 287.237 271.772 283.127C258.293 276.506 257.194 269.92 255.789 258.971C254.448 248.51 250.228 238.215 253.182 227.193C255.029 220.298 259.971 214.052 268.718 208.653C280.424 201.428 292.654 203.951 305.796 202.841C322.365 201.441 338.185 199.19 352.26 203.605C373.011 210.115 365.962 223.309 360.807 237.038C356.09 249.602 347.751 262.873 326.063 268.806C306.954 274.033 284.543 271.94 266.696 270.433C245.831 268.671 234.676 267.361 225.649 255.642C221.299 249.995 226.28 240.053 226.949 233.314C227.456 228.203 228.72 223.15 229.056 217.973C229.437 212.096 229.426 210.291 225.703 205.457C222.537 201.346 201.785 206.101 196.337 208.007C184.054 212.304 177.223 222.939 171.707 230.311C166.26 237.592 158.661 245.328 154.98 252.818C151.634 259.626 158.611 269.101 168.927 270.877C177.365 272.329 183.648 265.668 186.402 261.076C188.852 256.99 194.461 246.954 192.139 243.017C189.343 238.278 180.355 238.566 173.308 237.168C159.508 234.432 148.735 231.592 133.461 231.294C120.726 231.045 108.131 236.051 97.5875 241.841C88.9869 246.563 80.8854 251.629 72.42 256.443C68.0107 258.95 61.8298 261.91 59.245 265.319C55.1541 270.713 54.0778 276.929 60.1144 280.478C67.3973 284.76 70.4262 286.304 81.26 286.516C92.6475 286.739 99.9938 285.651 108.665 279.457C117.001 273.502 122.182 264.188 121.048 257.202C120.011 250.809 103.428 250.806 94.3622 250.43C86.195 250.093 79.4986 246.679 71.374 246.52" stroke="#95D09B" stroke-linecap="round" stroke-linejoin="round"/>
<path d="M217.76 259.905C179.921 252.797 143.105 240.557 108.985 227.718C104.033 225.854 97.008 223.548 93.3594 220.912C85.1988 215.018 80.4802 206.797 79.0543 200.595C77.979 195.918 76.9462 189.594 80.4743 185.74C83.9424 181.951 91.7194 179.837 98.562 177.814C113.842 173.299 133.661 169.686 152.571 168.359C162.821 167.64 172.667 166.661 184.294 168.513C203.771 171.617 222.733 186.825 230.961 195.304C239.268 203.864 248.547 212.749 246.958 221.207C246.511 223.585 246.362 227.559 240.317 227.377" stroke="#34BC8B" stroke-width="0.5" stroke-linecap="round" stroke-linejoin="round"/>
<path d="M1121.27 480.079C1129.61 486.395 1137.32 492.731 1146.07 498.959C1157.57 507.14 1169.28 515.89 1174.2 525.026C1180.59 536.889 1180.43 551.449 1173.66 561.467C1169.62 567.438 1154.87 566.353 1142.9 565.294C1126.08 563.805 1106.84 559.22 1091.5 553.511C1080.21 549.308 1071.64 545.175 1064.57 539.032C1058.71 533.944 1054.25 528.724 1048.09 523.695C1042.56 519.178 1037.17 514.948 1034.36 510.083C1031.53 505.185 1032.15 500.16 1029.93 495.249" stroke="#34BC8B" stroke-width="1.5" stroke-linecap="round" stroke-linejoin="round"/>
<path d="M991.037 364.18C981.929 354.415 970.361 344.935 962.156 335.048C957.658 329.629 953.481 326.432 943.986 322.699C924.754 315.136 904.186 308.612 882.283 306.733C873.134 305.948 865.269 306.362 857.227 307.261C847.072 308.396 836.632 309.187 826.522 310.392C813.132 311.988 812.672 317.283 811.463 323.716" stroke="#34BC8B" stroke-linecap="round" stroke-linejoin="round"/>
<path d="M1097.32 393.608C1095.38 406.677 1100.82 425.633 1079.42 433.03C1071.32 435.831 1057.6 434.442 1046.7 433.407C1037.93 432.573 1029.27 431.136 1020.51 429.489C1013.83 428.235 1005.35 427.296 999.505 424.612C983.97 417.475 967.593 406.615 965.026 396.993C963.719 392.091 958.336 386.598 959.226 381.857" stroke="#34BC8B" stroke-linecap="round" stroke-linejoin="round"/>
<path d="M777.527 249.669C776.62 254.497 775.713 259.325 774.806 264.153C774.247 267.126 774.767 270.881 771.422 273.118C762.813 278.875 748.641 281.962 736.027 285.529C718.295 290.543 692.929 293.759 668.103 290.147C652.677 287.903 629.893 285.128 617.82 278.179C594.287 264.635 576.531 250.241 572.864 234.557C571.06 226.841 564.756 218.534 557.862 210.787C556.386 209.128 549.581 200.107 553.25 199.97" stroke="#34BC8B" stroke-linecap="round" stroke-linejoin="round"/>
<path d="M742.74 453.104C737.447 444.286 735.114 436.071 732.571 427.339C730.638 420.704 721.652 413.005 713.199 406.981C707.137 402.661 699.249 400.829 690.41 399.168C678.456 396.923 676.012 395.685 672.042 400.907C669.11 404.762 669.077 409.424 668.259 413.781C667.781 416.327 665.738 419.543 666.743 422.252C667.352 423.89 670.499 426.582 671.659 428.364C672.873 430.227 673.216 430.974 672.865 432.843" stroke="#34BC8B" stroke-linecap="round" stroke-linejoin="round"/>
<path d="M634.981 401.868C628.224 397.877 622.658 394.245 617.652 389.773C613.939 386.455 611.547 383.745 606.466 380.663C595.558 374.046 572.167 367.957 569.996 377.756C569.161 381.526 567.959 385.396 567.901 389.302C567.847 392.869 571.474 396.173 573.456 399.678C574.213 401.016 576.741 401.996 576.912 403.391C577.161 405.41 577.533 407.458 577.17 409.391" stroke="#34BC8B" stroke-linecap="round" stroke-linejoin="round"/>
<path d="M1200.42 465.865C1187.24 466.887 1171.96 465.736 1157.87 465.672C1141.66 465.599 1125.95 464.873 1108.85 463.641C1089.64 462.257 1069.47 458.739 1049.89 455.062C1039.55 453.12 1029.59 449.654 1019.83 447.82C1007.6 445.522 994.586 447.726 983.228 447.185C968.309 446.474 951.958 444.022 936.561 442.198C900.28 437.899 871.363 442.694 834.01 437.461C814.634 434.746 795.137 429.796 775.698 426.957C749.721 423.164 726.001 419.838 700.432 417.534C675.37 415.275 647.146 412.482 621.557 407.675C606.832 404.909 596.968 401.235 584.725 396.179C579.256 393.921 570.939 391.475 566.195 389.023C557.711 384.64 554.288 377.866 549.288 373.227C542.126 366.582 538.561 358.572 542.1 353.05C547.274 344.977 577.025 343.183 596.637 342.839C616.191 342.496 638.8 344.762 660.253 348.791C683.502 353.159 710.708 356.843 732.816 363.532C746.235 367.592 750.759 373.663 762.926 378.064C786.616 386.634 797.214 399.981 802.931 409.953C805.239 413.979 802.103 417.866 802.888 421.768C803.69 425.753 802.016 429.71 801.077 433.424C799.23 440.731 783.963 437.559 768.297 434.616C762.526 433.532 751.483 432.237 746.2 430.327C740.52 428.272 739.843 426.191 738.551 423.689C734.785 416.396 741.095 411.074 760.421 412.057C773.414 412.718 787.645 413.912 801.509 416.516C807.382 417.619 813.453 421.528 818.289 423.413C823.437 425.419 828.863 426.814 832.507 429.343C837.368 432.716 840.309 436.291 843.429 439.715C848.881 445.699 852.456 453.826 845.608 457.842C835.491 463.774 809.247 459.788 790.11 455.529C775.147 452.199 756.786 443.581 746.436 438.137C732.031 430.56 712.712 423.046 702.376 414.744C692.552 406.853 692.911 397.132 691.842 389.709C691.282 385.827 692.014 382.328 692.149 378.498C692.401 371.335 666.026 358.51 651.596 353.059C615.876 339.568 582.588 330.44 540.714 324.152C529.156 322.416 516.36 321.69 505.215 319.667C488.848 316.696 472.94 312.98 456.696 309.929C433.881 305.643 411.185 300.755 388.249 296.447C368.585 292.753 347.805 289.977 330.592 291.024C296.987 293.07 266.746 295.651 240.431 302.449C220.707 307.544 196.988 317.626 164.341 313.534C143.001 310.859 121.044 306.543 103.332 298.745C98.602 296.663 94.4396 294.238 89.6183 292.147C85.3183 290.282 68.2845 284.107 62.5524 284.081C51.7775 284.032 43.149 286.177 32.7672 286.46C27.5499 286.602 15.5269 286.183 12.4817 287.642" stroke="#FF9900" stroke-linecap="round" stroke-linejoin="round"/>
</svg>
